<?xml version="1.0" standalone="no"?>
<!DOCTYPE svg PUBLIC "-//W3C//DTD SVG 20010904//EN"
 "http://www.w3.org/TR/2001/REC-SVG-20010904/DTD/svg10.dtd">
<svg version="1.0" xmlns="http://www.w3.org/2000/svg"
 width="111.000000pt" height="111.000000pt" viewBox="0 0 111.000000 111.000000"
 preserveAspectRatio="xMidYMid meet">

<g transform="translate(0.000000,111.000000) scale(0.100000,-0.100000)"
fill="#fff" stroke="none">
<path d="M157 1065 c-50 -17 -85 -50 -108 -100 -17 -37 -19 -71 -19 -405 0
-209 4 -380 10 -400 11 -40 71 -104 113 -119 39 -15 765 -15 804 0 42 15 102
79 113 119 6 20 10 191 10 400 0 333 -2 369 -19 405 -22 50 -69 91 -119 105
-59 16 -737 13 -785 -5z m591 -198 c23 -15 51 -45 62 -67 l20 -40 -57 -25
c-32 -14 -66 -29 -77 -33 -14 -6 -26 -1 -46 20 -17 16 -39 28 -55 28 -36 0
-92 -25 -103 -47 -5 -10 -18 -80 -28 -157 l-18 -139 28 -23 c61 -53 176 -6
176 71 0 11 -14 15 -55 15 -52 0 -55 1 -51 23 3 12 8 43 11 70 l6 47 140 0
141 0 -6 -27 c-3 -16 -10 -64 -17 -108 -25 -181 -128 -270 -309 -270 -96 1
-148 21 -193 75 -49 58 -53 92 -28 268 25 175 41 222 96 275 58 57 122 77 231
74 80 -2 95 -5 132 -30z"/>
</g>
</svg>
