<?xml version="1.0" standalone="no"?>
<!DOCTYPE svg PUBLIC "-//W3C//DTD SVG 20010904//EN"
 "http://www.w3.org/TR/2001/REC-SVG-20010904/DTD/svg10.dtd">
<svg version="1.0" xmlns="http://www.w3.org/2000/svg"
 width="249.000000pt" height="86.000000pt" viewBox="0 0 249.000000 86.000000"
 preserveAspectRatio="xMidYMid meet">

<g transform="translate(0.000000,86.000000) scale(0.100000,-0.100000)"
   fill="currentColor" stroke="none">
<path d="M231 810 c-77 -16 -126 -53 -158 -117 -26 -54 -28 -67 -28 -173 1
-132 14 -186 56 -234 48 -56 104 -71 249 -70 86 0 138 5 165 16 l40 15 3 161
2 162 -120 0 -120 0 0 -60 0 -60 60 0 60 0 0 -55 0 -55 -90 0 c-85 0 -91 2
-122 29 -31 28 -32 31 -36 122 -4 111 12 153 68 182 29 15 54 18 153 15 l117
-4 0 57 c0 32 -4 60 -9 63 -17 11 -246 15 -290 6z"/>
<path d="M670 450 l0 -230 69 0 69 0 4 143 c4 167 9 180 72 175 58 -4 66 -25
66 -186 l0 -133 73 3 72 3 3 144 c2 89 7 150 14 158 7 9 27 13 52 11 58 -4 66
-25 66 -186 l0 -133 73 3 72 3 0 165 c0 194 -11 233 -75 269 -68 38 -170 21
-206 -34 l-17 -26 -19 30 c-24 37 -75 55 -137 48 -38 -4 -52 -12 -78 -43 l-33
-37 0 41 0 42 -70 0 -70 0 0 -230z"/>
<path d="M1536 671 c-46 -10 -56 -23 -56 -78 0 -48 -2 -47 87 -32 35 6 84 8
109 4 42 -6 84 -33 84 -54 0 -5 -48 -11 -107 -13 -124 -5 -162 -19 -187 -72
-36 -76 -10 -166 58 -197 65 -30 175 -20 219 19 17 15 18 14 24 -6 5 -20 12
-22 69 -22 l64 0 0 153 c-1 199 -16 244 -97 282 -40 19 -204 29 -267 16z m224
-292 c0 -25 -6 -32 -35 -45 -46 -19 -110 -18 -129 2 -41 40 7 71 112 73 52 1
52 1 52 -30z"/>
<path d="M2000 360 l0 -320 75 0 75 0 0 95 0 95 28 -7 c51 -15 145 -8 186 12
60 30 80 78 84 199 4 114 -11 170 -59 210 -55 47 -171 47 -214 0 -29 -31 -35
-30 -35 6 l0 30 -70 0 -70 0 0 -320z m276 182 c45 -30 45 -164 0 -194 -13 -9
-88 -10 -110 -2 -13 5 -16 22 -16 82 0 64 3 79 22 99 22 23 80 32 104 15z"/>
</g>
</svg>
